<?xml version="1.0" encoding="UTF-8" standalone="no"?>
<!DOCTYPE svg PUBLIC "-//W3C//DTD SVG 1.1//EN"
 "http://www.w3.org/Graphics/SVG/1.1/DTD/svg11.dtd">
<!-- Generated by graphviz version 2.40.1 (20161225.0304)
 -->
<!-- Title: dependencies Pages: 1 -->
<svg width="1521pt" height="284pt"
 viewBox="0.00 0.00 1521.00 284.00" xmlns="http://www.w3.org/2000/svg" xmlns:xlink="http://www.w3.org/1999/xlink">
<g id="graph0" class="graph" transform="scale(1 1) rotate(0) translate(4 280)">
<title>dependencies</title>
<polygon fill="#ffffff" stroke="transparent" points="-4,4 -4,-280 1517,-280 1517,4 -4,4"/>
<text text-anchor="start" x="735.5091" y="-42.4" font-family="sans-serif" font-weight="bold" font-size="14.00" fill="#000000">Legend</text>
<polygon fill="#ffffb3" stroke="transparent" points="522.5,-10 522.5,-30 542.5,-30 542.5,-10 522.5,-10"/>
<text text-anchor="start" x="546.129" y="-15.4" font-family="sans-serif" font-size="14.00" fill="#000000"> &#160;Declarations</text>
<polygon fill="#8dd3c7" stroke="transparent" points="635.5,-10 635.5,-30 655.5,-30 655.5,-10 635.5,-10"/>
<text text-anchor="start" x="659.2251" y="-15.4" font-family="sans-serif" font-size="14.00" fill="#000000"> &#160;Module</text>
<polygon fill="#80b1d3" stroke="transparent" points="721.5,-10 721.5,-30 741.5,-30 741.5,-10 721.5,-10"/>
<text text-anchor="start" x="745.2812" y="-15.4" font-family="sans-serif" font-size="14.00" fill="#000000"> &#160;Bootstrap</text>
<polygon fill="#fdb462" stroke="transparent" points="818.5,-10 818.5,-30 838.5,-30 838.5,-10 818.5,-10"/>
<text text-anchor="start" x="842.1732" y="-15.4" font-family="sans-serif" font-size="14.00" fill="#000000"> &#160;Providers</text>
<polygon fill="#fb8072" stroke="transparent" points="914.5,-10 914.5,-30 934.5,-30 934.5,-10 914.5,-10"/>
<text text-anchor="start" x="938.2258" y="-15.4" font-family="sans-serif" font-size="14.00" fill="#000000"> &#160;Exports</text>
<g id="clust1" class="cluster">
<title>cluster_SharedSearchModule</title>
<polygon fill="none" stroke="#000000" stroke-dasharray="1,5" points="8,-70 8,-268 1505,-268 1505,-70 8,-70"/>
</g>
<g id="clust2" class="cluster">
<title>cluster_SharedSearchModule_declarations</title>
<polygon fill="none" stroke="#000000" points="837,-78 837,-130 1497,-130 1497,-78 837,-78"/>
</g>
<g id="clust7" class="cluster">
<title>cluster_SharedSearchModule_imports</title>
<polygon fill="none" stroke="#000000" points="707,-78 707,-130 829,-130 829,-78 707,-78"/>
</g>
<g id="clust8" class="cluster">
<title>cluster_SharedSearchModule_exports</title>
<polygon fill="none" stroke="#000000" points="781,-208 781,-260 919,-260 919,-208 781,-208"/>
</g>
<g id="clust10" class="cluster">
<title>cluster_SharedSearchModule_providers</title>
<polygon fill="none" stroke="#000000" points="16,-78 16,-130 699,-130 699,-78 16,-78"/>
</g>
<!-- FlightListComponent -->
<g id="node1" class="node">
<title>FlightListComponent</title>
<polygon fill="#ffffb3" stroke="#000000" points="1489.0659,-122 1352.9341,-122 1352.9341,-86 1489.0659,-86 1489.0659,-122"/>
<text text-anchor="middle" x="1421" y="-99.8" font-family="Times,serif" font-size="14.00" fill="#000000">FlightListComponent</text>
</g>
<!-- SharedSearchModule -->
<g id="node5" class="node">
<title>SharedSearchModule</title>
<polygon fill="#8dd3c7" stroke="#000000" points="918.0101,-187 915.0101,-191 894.0101,-191 891.0101,-187 781.9899,-187 781.9899,-151 918.0101,-151 918.0101,-187"/>
<text text-anchor="middle" x="850" y="-164.8" font-family="Times,serif" font-size="14.00" fill="#000000">SharedSearchModule</text>
</g>
<!-- FlightListComponent&#45;&gt;SharedSearchModule -->
<g id="edge1" class="edge">
<title>FlightListComponent&#45;&gt;SharedSearchModule</title>
<path fill="none" stroke="#000000" d="M1421,-122.2921C1421,-144.2057 1421,-178 1421,-178 1421,-178 928.0259,-178 928.0259,-178"/>
<polygon fill="#000000" stroke="#000000" points="928.0259,-174.5001 918.0259,-178 928.0259,-181.5001 928.0259,-174.5001"/>
</g>
<!-- SearchComponent -->
<g id="node2" class="node">
<title>SearchComponent</title>
<polygon fill="#ffffb3" stroke="#000000" points="1334.9201,-122 1215.0799,-122 1215.0799,-86 1334.9201,-86 1334.9201,-122"/>
<text text-anchor="middle" x="1275" y="-99.8" font-family="Times,serif" font-size="14.00" fill="#000000">SearchComponent</text>
</g>
<!-- SearchComponent&#45;&gt;SharedSearchModule -->
<g id="edge2" class="edge">
<title>SearchComponent&#45;&gt;SharedSearchModule</title>
<path fill="none" stroke="#000000" d="M1275,-122.1061C1275,-141.3391 1275,-169 1275,-169 1275,-169 928.2836,-169 928.2836,-169"/>
<polygon fill="#000000" stroke="#000000" points="928.2836,-165.5001 918.2836,-169 928.2836,-172.5001 928.2836,-165.5001"/>
</g>
<!-- SearchResultsComponent -->
<g id="node3" class="node">
<title>SearchResultsComponent</title>
<polygon fill="#ffffb3" stroke="#000000" points="1197.1414,-122 1036.8586,-122 1036.8586,-86 1197.1414,-86 1197.1414,-122"/>
<text text-anchor="middle" x="1117" y="-99.8" font-family="Times,serif" font-size="14.00" fill="#000000">SearchResultsComponent</text>
</g>
<!-- SearchResultsComponent&#45;&gt;SharedSearchModule -->
<g id="edge3" class="edge">
<title>SearchResultsComponent&#45;&gt;SharedSearchModule</title>
<path fill="none" stroke="#000000" d="M1117,-122.027C1117,-138.3976 1117,-160 1117,-160 1117,-160 928.0662,-160 928.0662,-160"/>
<polygon fill="#000000" stroke="#000000" points="928.0663,-156.5001 918.0662,-160 928.0662,-163.5001 928.0663,-156.5001"/>
</g>
<!-- SearchSummaryComponent -->
<g id="node4" class="node">
<title>SearchSummaryComponent</title>
<polygon fill="#ffffb3" stroke="#000000" points="1018.8585,-122 845.1415,-122 845.1415,-86 1018.8585,-86 1018.8585,-122"/>
<text text-anchor="middle" x="932" y="-99.8" font-family="Times,serif" font-size="14.00" fill="#000000">SearchSummaryComponent</text>
</g>
<!-- SearchSummaryComponent&#45;&gt;SharedSearchModule -->
<g id="edge4" class="edge">
<title>SearchSummaryComponent&#45;&gt;SharedSearchModule</title>
<path fill="none" stroke="#000000" d="M881.6627,-122.1061C881.6627,-122.1061 881.6627,-140.991 881.6627,-140.991"/>
<polygon fill="#000000" stroke="#000000" points="878.1628,-140.9909 881.6627,-150.991 885.1628,-140.991 878.1628,-140.9909"/>
</g>
<!-- SearchComponent  -->
<g id="node7" class="node">
<title>SearchComponent </title>
<polygon fill="#fb8072" stroke="#000000" points="911.4194,-252 788.5806,-252 788.5806,-216 911.4194,-216 911.4194,-252"/>
<text text-anchor="middle" x="850" y="-229.8" font-family="Times,serif" font-size="14.00" fill="#000000">SearchComponent </text>
</g>
<!-- SharedSearchModule&#45;&gt;SearchComponent  -->
<g id="edge6" class="edge">
<title>SharedSearchModule&#45;&gt;SearchComponent </title>
<path fill="none" stroke="#000000" stroke-dasharray="5,2" d="M850,-187.1061C850,-187.1061 850,-205.991 850,-205.991"/>
<polygon fill="#000000" stroke="#000000" points="846.5001,-205.9909 850,-215.991 853.5001,-205.991 846.5001,-205.9909"/>
</g>
<!-- MaterialModule -->
<g id="node6" class="node">
<title>MaterialModule</title>
<polygon fill="#8dd3c7" stroke="#000000" points="821.4706,-122 818.4706,-126 797.4706,-126 794.4706,-122 714.5294,-122 714.5294,-86 821.4706,-86 821.4706,-122"/>
<text text-anchor="middle" x="768" y="-99.8" font-family="Times,serif" font-size="14.00" fill="#000000">MaterialModule</text>
</g>
<!-- MaterialModule&#45;&gt;SharedSearchModule -->
<g id="edge5" class="edge">
<title>MaterialModule&#45;&gt;SharedSearchModule</title>
<path fill="none" stroke="#000000" d="M801.6154,-122.1061C801.6154,-122.1061 801.6154,-140.991 801.6154,-140.991"/>
<polygon fill="#000000" stroke="#000000" points="798.1154,-140.9909 801.6154,-150.991 805.1154,-140.991 798.1154,-140.9909"/>
</g>
<!-- AuthenticationServiceService -->
<g id="node8" class="node">
<title>AuthenticationServiceService</title>
<ellipse fill="#fdb462" stroke="#000000" cx="565" cy="-104" rx="126.1791" ry="18"/>
<text text-anchor="middle" x="565" y="-99.8" font-family="Times,serif" font-size="14.00" fill="#000000">AuthenticationServiceService</text>
</g>
<!-- AuthenticationServiceService&#45;&gt;SharedSearchModule -->
<g id="edge7" class="edge">
<title>AuthenticationServiceService&#45;&gt;SharedSearchModule</title>
<path fill="none" stroke="#000000" d="M565,-122.027C565,-138.3976 565,-160 565,-160 565,-160 771.7354,-160 771.7354,-160"/>
<polygon fill="#000000" stroke="#000000" points="771.7354,-163.5001 781.7354,-160 771.7354,-156.5001 771.7354,-163.5001"/>
</g>
<!-- FlightDestinationsService -->
<g id="node9" class="node">
<title>FlightDestinationsService</title>
<ellipse fill="#fdb462" stroke="#000000" cx="309" cy="-104" rx="111.1885" ry="18"/>
<text text-anchor="middle" x="309" y="-99.8" font-family="Times,serif" font-size="14.00" fill="#000000">FlightDestinationsService</text>
</g>
<!-- FlightDestinationsService&#45;&gt;SharedSearchModule -->
<g id="edge8" class="edge">
<title>FlightDestinationsService&#45;&gt;SharedSearchModule</title>
<path fill="none" stroke="#000000" d="M309,-122.1061C309,-141.3391 309,-169 309,-169 309,-169 771.7561,-169 771.7561,-169"/>
<polygon fill="#000000" stroke="#000000" points="771.7561,-172.5001 781.7561,-169 771.7561,-165.5001 771.7561,-172.5001"/>
</g>
<!-- TokenInterceptor -->
<g id="node10" class="node">
<title>TokenInterceptor</title>
<ellipse fill="#fdb462" stroke="#000000" cx="102" cy="-104" rx="78.1308" ry="18"/>
<text text-anchor="middle" x="102" y="-99.8" font-family="Times,serif" font-size="14.00" fill="#000000">TokenInterceptor</text>
</g>
<!-- TokenInterceptor&#45;&gt;SharedSearchModule -->
<g id="edge9" class="edge">
<title>TokenInterceptor&#45;&gt;SharedSearchModule</title>
<path fill="none" stroke="#000000" d="M102,-122.2921C102,-144.2057 102,-178 102,-178 102,-178 771.9692,-178 771.9692,-178"/>
<polygon fill="#000000" stroke="#000000" points="771.9693,-181.5001 781.9692,-178 771.9692,-174.5001 771.9693,-181.5001"/>
</g>
</g>
</svg>
