<?xml version="1.0" encoding="UTF-8" standalone="no"?>
<!DOCTYPE svg PUBLIC "-//W3C//DTD SVG 1.1//EN"
 "http://www.w3.org/Graphics/SVG/1.1/DTD/svg11.dtd">
<!-- Generated by graphviz version 2.44.0 (20200408.0750)
 -->
<!-- Title: dependencies Pages: 1 -->
<svg width="1250pt" height="284pt"
 viewBox="0.00 0.00 1250.00 284.00" xmlns="http://www.w3.org/2000/svg" xmlns:xlink="http://www.w3.org/1999/xlink">
<g id="graph0" class="graph" transform="scale(1 1) rotate(0) translate(4 280)">
<title>dependencies</title>
<polygon fill="white" stroke="transparent" points="-4,4 -4,-280 1246,-280 1246,4 -4,4"/>
<text text-anchor="start" x="600.01" y="-42.4" font-family="sans-serif" font-weight="bold" font-size="14.00">Legend</text>
<polygon fill="#ffffb3" stroke="transparent" points="387,-10 387,-30 407,-30 407,-10 387,-10"/>
<text text-anchor="start" x="410.63" y="-15.4" font-family="sans-serif" font-size="14.00"> &#160;Declarations</text>
<polygon fill="#8dd3c7" stroke="transparent" points="500,-10 500,-30 520,-30 520,-10 500,-10"/>
<text text-anchor="start" x="523.73" y="-15.4" font-family="sans-serif" font-size="14.00"> &#160;Module</text>
<polygon fill="#80b1d3" stroke="transparent" points="586,-10 586,-30 606,-30 606,-10 586,-10"/>
<text text-anchor="start" x="609.78" y="-15.4" font-family="sans-serif" font-size="14.00"> &#160;Bootstrap</text>
<polygon fill="#fdb462" stroke="transparent" points="683,-10 683,-30 703,-30 703,-10 683,-10"/>
<text text-anchor="start" x="706.67" y="-15.4" font-family="sans-serif" font-size="14.00"> &#160;Providers</text>
<polygon fill="#fb8072" stroke="transparent" points="779,-10 779,-30 799,-30 799,-10 779,-10"/>
<text text-anchor="start" x="802.73" y="-15.4" font-family="sans-serif" font-size="14.00"> &#160;Exports</text>
<g id="clust1" class="cluster">
<title>cluster_SharedSearchModule</title>
<polygon fill="none" stroke="black" stroke-dasharray="1,5" points="8,-70 8,-268 1234,-268 1234,-70 8,-70"/>
</g>
<g id="clust7" class="cluster">
<title>cluster_SharedSearchModule_imports</title>
<polygon fill="none" stroke="black" points="1104,-78 1104,-130 1226,-130 1226,-78 1104,-78"/>
</g>
<g id="clust8" class="cluster">
<title>cluster_SharedSearchModule_exports</title>
<polygon fill="none" stroke="black" points="647,-208 647,-260 785,-260 785,-208 647,-208"/>
</g>
<g id="clust2" class="cluster">
<title>cluster_SharedSearchModule_declarations</title>
<polygon fill="none" stroke="black" points="436,-78 436,-130 1096,-130 1096,-78 436,-78"/>
</g>
<g id="clust10" class="cluster">
<title>cluster_SharedSearchModule_providers</title>
<polygon fill="none" stroke="black" points="16,-78 16,-130 428,-130 428,-78 16,-78"/>
</g>
<!-- FlightListComponent -->
<g id="node1" class="node">
<title>FlightListComponent</title>
<polygon fill="#ffffb3" stroke="black" points="1088.07,-122 951.93,-122 951.93,-86 1088.07,-86 1088.07,-122"/>
<text text-anchor="middle" x="1020" y="-99.8" font-family="Times,serif" font-size="14.00">FlightListComponent</text>
</g>
<!-- SharedSearchModule -->
<g id="node5" class="node">
<title>SharedSearchModule</title>
<polygon fill="#8dd3c7" stroke="black" points="784.01,-187 781.01,-191 760.01,-191 757.01,-187 647.99,-187 647.99,-151 784.01,-151 784.01,-187"/>
<text text-anchor="middle" x="716" y="-164.8" font-family="Times,serif" font-size="14.00">SharedSearchModule</text>
</g>
<!-- FlightListComponent&#45;&gt;SharedSearchModule -->
<g id="edge1" class="edge">
<title>FlightListComponent&#45;&gt;SharedSearchModule</title>
<path fill="none" stroke="black" d="M1020,-122.11C1020,-141.34 1020,-169 1020,-169 1020,-169 794.22,-169 794.22,-169"/>
<polygon fill="black" stroke="black" points="794.22,-165.5 784.22,-169 794.22,-172.5 794.22,-165.5"/>
</g>
<!-- SearchComponent -->
<g id="node2" class="node">
<title>SearchComponent</title>
<polygon fill="#ffffb3" stroke="black" points="933.92,-122 814.08,-122 814.08,-86 933.92,-86 933.92,-122"/>
<text text-anchor="middle" x="874" y="-99.8" font-family="Times,serif" font-size="14.00">SearchComponent</text>
</g>
<!-- SearchComponent&#45;&gt;SharedSearchModule -->
<g id="edge2" class="edge">
<title>SearchComponent&#45;&gt;SharedSearchModule</title>
<path fill="none" stroke="black" d="M874,-122.03C874,-138.4 874,-160 874,-160 874,-160 794.38,-160 794.38,-160"/>
<polygon fill="black" stroke="black" points="794.38,-156.5 784.38,-160 794.38,-163.5 794.38,-156.5"/>
</g>
<!-- SearchResultsComponent -->
<g id="node3" class="node">
<title>SearchResultsComponent</title>
<polygon fill="#ffffb3" stroke="black" points="796.14,-122 635.86,-122 635.86,-86 796.14,-86 796.14,-122"/>
<text text-anchor="middle" x="716" y="-99.8" font-family="Times,serif" font-size="14.00">SearchResultsComponent</text>
</g>
<!-- SearchResultsComponent&#45;&gt;SharedSearchModule -->
<g id="edge3" class="edge">
<title>SearchResultsComponent&#45;&gt;SharedSearchModule</title>
<path fill="none" stroke="black" d="M716,-122.11C716,-122.11 716,-140.99 716,-140.99"/>
<polygon fill="black" stroke="black" points="712.5,-140.99 716,-150.99 719.5,-140.99 712.5,-140.99"/>
</g>
<!-- SearchSummaryComponent -->
<g id="node4" class="node">
<title>SearchSummaryComponent</title>
<polygon fill="#ffffb3" stroke="black" points="617.86,-122 444.14,-122 444.14,-86 617.86,-86 617.86,-122"/>
<text text-anchor="middle" x="531" y="-99.8" font-family="Times,serif" font-size="14.00">SearchSummaryComponent</text>
</g>
<!-- SearchSummaryComponent&#45;&gt;SharedSearchModule -->
<g id="edge4" class="edge">
<title>SearchSummaryComponent&#45;&gt;SharedSearchModule</title>
<path fill="none" stroke="black" d="M531,-122.03C531,-138.4 531,-160 531,-160 531,-160 637.9,-160 637.9,-160"/>
<polygon fill="black" stroke="black" points="637.9,-163.5 647.9,-160 637.9,-156.5 637.9,-163.5"/>
</g>
<!-- SearchComponent  -->
<g id="node7" class="node">
<title>SearchComponent </title>
<polygon fill="#fb8072" stroke="black" points="777.42,-252 654.58,-252 654.58,-216 777.42,-216 777.42,-252"/>
<text text-anchor="middle" x="716" y="-229.8" font-family="Times,serif" font-size="14.00">SearchComponent </text>
</g>
<!-- SharedSearchModule&#45;&gt;SearchComponent  -->
<g id="edge6" class="edge">
<title>SharedSearchModule&#45;&gt;SearchComponent </title>
<path fill="none" stroke="black" stroke-dasharray="5,2" d="M716,-187.11C716,-187.11 716,-205.99 716,-205.99"/>
<polygon fill="black" stroke="black" points="712.5,-205.99 716,-215.99 719.5,-205.99 712.5,-205.99"/>
</g>
<!-- MaterialModule -->
<g id="node6" class="node">
<title>MaterialModule</title>
<polygon fill="#8dd3c7" stroke="black" points="1218.47,-122 1215.47,-126 1194.47,-126 1191.47,-122 1111.53,-122 1111.53,-86 1218.47,-86 1218.47,-122"/>
<text text-anchor="middle" x="1165" y="-99.8" font-family="Times,serif" font-size="14.00">MaterialModule</text>
</g>
<!-- MaterialModule&#45;&gt;SharedSearchModule -->
<g id="edge5" class="edge">
<title>MaterialModule&#45;&gt;SharedSearchModule</title>
<path fill="none" stroke="black" d="M1165,-122.29C1165,-144.21 1165,-178 1165,-178 1165,-178 794.19,-178 794.19,-178"/>
<polygon fill="black" stroke="black" points="794.19,-174.5 784.19,-178 794.19,-181.5 794.19,-174.5"/>
</g>
<!-- FlightDestinationsService -->
<g id="node8" class="node">
<title>FlightDestinationsService</title>
<ellipse fill="#fdb462" stroke="black" cx="309" cy="-104" rx="111.19" ry="18"/>
<text text-anchor="middle" x="309" y="-99.8" font-family="Times,serif" font-size="14.00">FlightDestinationsService</text>
</g>
<!-- FlightDestinationsService&#45;&gt;SharedSearchModule -->
<g id="edge7" class="edge">
<title>FlightDestinationsService&#45;&gt;SharedSearchModule</title>
<path fill="none" stroke="black" d="M309,-122.11C309,-141.34 309,-169 309,-169 309,-169 637.88,-169 637.88,-169"/>
<polygon fill="black" stroke="black" points="637.88,-172.5 647.88,-169 637.88,-165.5 637.88,-172.5"/>
</g>
<!-- TokenInterceptor -->
<g id="node9" class="node">
<title>TokenInterceptor</title>
<ellipse fill="#fdb462" stroke="black" cx="102" cy="-104" rx="78.13" ry="18"/>
<text text-anchor="middle" x="102" y="-99.8" font-family="Times,serif" font-size="14.00">TokenInterceptor</text>
</g>
<!-- TokenInterceptor&#45;&gt;SharedSearchModule -->
<g id="edge8" class="edge">
<title>TokenInterceptor&#45;&gt;SharedSearchModule</title>
<path fill="none" stroke="black" d="M102,-122.29C102,-144.21 102,-178 102,-178 102,-178 637.95,-178 637.95,-178"/>
<polygon fill="black" stroke="black" points="637.95,-181.5 647.95,-178 637.95,-174.5 637.95,-181.5"/>
</g>
</g>
</svg>
