<?xml version="1.0" encoding="UTF-8" standalone="no"?>
<!DOCTYPE svg PUBLIC "-//W3C//DTD SVG 1.1//EN"
 "http://www.w3.org/Graphics/SVG/1.1/DTD/svg11.dtd">
<!-- Generated by graphviz version 2.40.1 (20161225.0304)
 -->
<!-- Title: dependencies Pages: 1 -->
<svg width="721pt" height="284pt"
 viewBox="0.00 0.00 721.00 284.00" xmlns="http://www.w3.org/2000/svg" xmlns:xlink="http://www.w3.org/1999/xlink">
<g id="graph0" class="graph" transform="scale(1 1) rotate(0) translate(4 280)">
<title>dependencies</title>
<polygon fill="#ffffff" stroke="transparent" points="-4,4 -4,-280 717,-280 717,4 -4,4"/>
<text text-anchor="start" x="335.5091" y="-42.4" font-family="sans-serif" font-weight="bold" font-size="14.00" fill="#000000">Legend</text>
<polygon fill="#ffffb3" stroke="transparent" points="122.5,-10 122.5,-30 142.5,-30 142.5,-10 122.5,-10"/>
<text text-anchor="start" x="146.129" y="-15.4" font-family="sans-serif" font-size="14.00" fill="#000000"> &#160;Declarations</text>
<polygon fill="#8dd3c7" stroke="transparent" points="235.5,-10 235.5,-30 255.5,-30 255.5,-10 235.5,-10"/>
<text text-anchor="start" x="259.2251" y="-15.4" font-family="sans-serif" font-size="14.00" fill="#000000"> &#160;Module</text>
<polygon fill="#80b1d3" stroke="transparent" points="321.5,-10 321.5,-30 341.5,-30 341.5,-10 321.5,-10"/>
<text text-anchor="start" x="345.2812" y="-15.4" font-family="sans-serif" font-size="14.00" fill="#000000"> &#160;Bootstrap</text>
<polygon fill="#fdb462" stroke="transparent" points="418.5,-10 418.5,-30 438.5,-30 438.5,-10 418.5,-10"/>
<text text-anchor="start" x="442.1732" y="-15.4" font-family="sans-serif" font-size="14.00" fill="#000000"> &#160;Providers</text>
<polygon fill="#fb8072" stroke="transparent" points="514.5,-10 514.5,-30 534.5,-30 534.5,-10 514.5,-10"/>
<text text-anchor="start" x="538.2258" y="-15.4" font-family="sans-serif" font-size="14.00" fill="#000000"> &#160;Exports</text>
<g id="clust1" class="cluster">
<title>cluster_AppModule</title>
<polygon fill="none" stroke="#000000" stroke-dasharray="1,5" points="8,-70 8,-268 705,-268 705,-70 8,-70"/>
</g>
<g id="clust2" class="cluster">
<title>cluster_AppModule_declarations</title>
<polygon fill="none" stroke="#000000" points="301,-78 301,-130 697,-130 697,-78 301,-78"/>
</g>
<g id="clust6" class="cluster">
<title>cluster_AppModule_imports</title>
<polygon fill="none" stroke="#000000" points="16,-78 16,-130 293,-130 293,-78 16,-78"/>
</g>
<g id="clust8" class="cluster">
<title>cluster_AppModule_bootstrap</title>
<polygon fill="none" stroke="#000000" points="305,-208 305,-260 429,-260 429,-208 305,-208"/>
</g>
<!-- AppComponent -->
<g id="node1" class="node">
<title>AppComponent</title>
<polygon fill="#ffffb3" stroke="#000000" points="688.9399,-122 583.0601,-122 583.0601,-86 688.9399,-86 688.9399,-122"/>
<text text-anchor="middle" x="636" y="-99.8" font-family="Times,serif" font-size="14.00" fill="#000000">AppComponent</text>
</g>
<!-- AppModule -->
<g id="node4" class="node">
<title>AppModule</title>
<polygon fill="#8dd3c7" stroke="#000000" points="408.6571,-187 405.6571,-191 384.6571,-191 381.6571,-187 325.3429,-187 325.3429,-151 408.6571,-151 408.6571,-187"/>
<text text-anchor="middle" x="367" y="-164.8" font-family="Times,serif" font-size="14.00" fill="#000000">AppModule</text>
</g>
<!-- AppComponent&#45;&gt;AppModule -->
<g id="edge1" class="edge">
<title>AppComponent&#45;&gt;AppModule</title>
<path fill="none" stroke="#000000" d="M636,-122.2843C636,-143.3211 636,-175 636,-175 636,-175 418.7361,-175 418.7361,-175"/>
<polygon fill="#000000" stroke="#000000" points="418.7361,-171.5001 408.7361,-175 418.7361,-178.5001 418.7361,-171.5001"/>
</g>
<!-- HeaderComponent -->
<g id="node2" class="node">
<title>HeaderComponent</title>
<polygon fill="#ffffb3" stroke="#000000" points="564.7437,-122 443.2563,-122 443.2563,-86 564.7437,-86 564.7437,-122"/>
<text text-anchor="middle" x="504" y="-99.8" font-family="Times,serif" font-size="14.00" fill="#000000">HeaderComponent</text>
</g>
<!-- HeaderComponent&#45;&gt;AppModule -->
<g id="edge2" class="edge">
<title>HeaderComponent&#45;&gt;AppModule</title>
<path fill="none" stroke="#000000" d="M504,-122.0225C504,-139.3734 504,-163 504,-163 504,-163 418.8489,-163 418.8489,-163"/>
<polygon fill="#000000" stroke="#000000" points="418.849,-159.5001 408.8489,-163 418.8489,-166.5001 418.849,-159.5001"/>
</g>
<!-- HomeComponent -->
<g id="node3" class="node">
<title>HomeComponent</title>
<polygon fill="#ffffb3" stroke="#000000" points="424.5451,-122 309.4549,-122 309.4549,-86 424.5451,-86 424.5451,-122"/>
<text text-anchor="middle" x="367" y="-99.8" font-family="Times,serif" font-size="14.00" fill="#000000">HomeComponent</text>
</g>
<!-- HomeComponent&#45;&gt;AppModule -->
<g id="edge3" class="edge">
<title>HomeComponent&#45;&gt;AppModule</title>
<path fill="none" stroke="#000000" d="M367,-122.1061C367,-122.1061 367,-140.991 367,-140.991"/>
<polygon fill="#000000" stroke="#000000" points="363.5001,-140.9909 367,-150.991 370.5001,-140.991 363.5001,-140.9909"/>
</g>
<!-- AppComponent  -->
<g id="node7" class="node">
<title>AppComponent </title>
<polygon fill="#80b1d3" stroke="#000000" points="421.439,-252 312.561,-252 312.561,-216 421.439,-216 421.439,-252"/>
<text text-anchor="middle" x="367" y="-229.8" font-family="Times,serif" font-size="14.00" fill="#000000">AppComponent </text>
</g>
<!-- AppModule&#45;&gt;AppComponent  -->
<g id="edge6" class="edge">
<title>AppModule&#45;&gt;AppComponent </title>
<path fill="none" stroke="#000000" stroke-dasharray="1,5" d="M367,-187.1061C367,-187.1061 367,-205.991 367,-205.991"/>
<polygon fill="#000000" stroke="#000000" points="363.5001,-205.9909 367,-215.991 370.5001,-205.991 363.5001,-205.9909"/>
</g>
<!-- MaterialModule -->
<g id="node5" class="node">
<title>MaterialModule</title>
<polygon fill="#8dd3c7" stroke="#000000" points="285.4706,-122 282.4706,-126 261.4706,-126 258.4706,-122 178.5294,-122 178.5294,-86 285.4706,-86 285.4706,-122"/>
<text text-anchor="middle" x="232" y="-99.8" font-family="Times,serif" font-size="14.00" fill="#000000">MaterialModule</text>
</g>
<!-- MaterialModule&#45;&gt;AppModule -->
<g id="edge4" class="edge">
<title>MaterialModule&#45;&gt;AppModule</title>
<path fill="none" stroke="#000000" d="M232,-122.0225C232,-139.3734 232,-163 232,-163 232,-163 315.0252,-163 315.0252,-163"/>
<polygon fill="#000000" stroke="#000000" points="315.0252,-166.5001 325.0252,-163 315.0251,-159.5001 315.0252,-166.5001"/>
</g>
<!-- SharedSearchModule -->
<g id="node6" class="node">
<title>SharedSearchModule</title>
<polygon fill="#8dd3c7" stroke="#000000" points="160.0101,-122 157.0101,-126 136.0101,-126 133.0101,-122 23.9899,-122 23.9899,-86 160.0101,-86 160.0101,-122"/>
<text text-anchor="middle" x="92" y="-99.8" font-family="Times,serif" font-size="14.00" fill="#000000">SharedSearchModule</text>
</g>
<!-- SharedSearchModule&#45;&gt;AppModule -->
<g id="edge5" class="edge">
<title>SharedSearchModule&#45;&gt;AppModule</title>
<path fill="none" stroke="#000000" d="M92,-122.2843C92,-143.3211 92,-175 92,-175 92,-175 315.2334,-175 315.2334,-175"/>
<polygon fill="#000000" stroke="#000000" points="315.2335,-178.5001 325.2334,-175 315.2334,-171.5001 315.2335,-178.5001"/>
</g>
</g>
</svg>
