<?xml version="1.0" encoding="UTF-8" standalone="no"?>
<!DOCTYPE svg PUBLIC "-//W3C//DTD SVG 1.1//EN"
 "http://www.w3.org/Graphics/SVG/1.1/DTD/svg11.dtd">
<!-- Generated by graphviz version 2.44.0 (20200408.0750)
 -->
<!-- Title: dependencies Pages: 1 -->
<svg width="721pt" height="284pt"
 viewBox="0.00 0.00 721.00 284.00" xmlns="http://www.w3.org/2000/svg" xmlns:xlink="http://www.w3.org/1999/xlink">
<g id="graph0" class="graph" transform="scale(1 1) rotate(0) translate(4 280)">
<title>dependencies</title>
<polygon fill="white" stroke="transparent" points="-4,4 -4,-280 717,-280 717,4 -4,4"/>
<text text-anchor="start" x="335.51" y="-42.4" font-family="sans-serif" font-weight="bold" font-size="14.00">Legend</text>
<polygon fill="#ffffb3" stroke="transparent" points="122.5,-10 122.5,-30 142.5,-30 142.5,-10 122.5,-10"/>
<text text-anchor="start" x="146.13" y="-15.4" font-family="sans-serif" font-size="14.00"> &#160;Declarations</text>
<polygon fill="#8dd3c7" stroke="transparent" points="235.5,-10 235.5,-30 255.5,-30 255.5,-10 235.5,-10"/>
<text text-anchor="start" x="259.23" y="-15.4" font-family="sans-serif" font-size="14.00"> &#160;Module</text>
<polygon fill="#80b1d3" stroke="transparent" points="321.5,-10 321.5,-30 341.5,-30 341.5,-10 321.5,-10"/>
<text text-anchor="start" x="345.28" y="-15.4" font-family="sans-serif" font-size="14.00"> &#160;Bootstrap</text>
<polygon fill="#fdb462" stroke="transparent" points="418.5,-10 418.5,-30 438.5,-30 438.5,-10 418.5,-10"/>
<text text-anchor="start" x="442.17" y="-15.4" font-family="sans-serif" font-size="14.00"> &#160;Providers</text>
<polygon fill="#fb8072" stroke="transparent" points="514.5,-10 514.5,-30 534.5,-30 534.5,-10 514.5,-10"/>
<text text-anchor="start" x="538.23" y="-15.4" font-family="sans-serif" font-size="14.00"> &#160;Exports</text>
<g id="clust1" class="cluster">
<title>cluster_AppModule</title>
<polygon fill="none" stroke="black" stroke-dasharray="1,5" points="8,-70 8,-268 705,-268 705,-70 8,-70"/>
</g>
<g id="clust8" class="cluster">
<title>cluster_AppModule_bootstrap</title>
<polygon fill="none" stroke="black" points="305,-208 305,-260 429,-260 429,-208 305,-208"/>
</g>
<g id="clust2" class="cluster">
<title>cluster_AppModule_declarations</title>
<polygon fill="none" stroke="black" points="301,-78 301,-130 697,-130 697,-78 301,-78"/>
</g>
<g id="clust6" class="cluster">
<title>cluster_AppModule_imports</title>
<polygon fill="none" stroke="black" points="16,-78 16,-130 293,-130 293,-78 16,-78"/>
</g>
<!-- AppComponent -->
<g id="node1" class="node">
<title>AppComponent</title>
<polygon fill="#ffffb3" stroke="black" points="688.94,-122 583.06,-122 583.06,-86 688.94,-86 688.94,-122"/>
<text text-anchor="middle" x="636" y="-99.8" font-family="Times,serif" font-size="14.00">AppComponent</text>
</g>
<!-- AppModule -->
<g id="node4" class="node">
<title>AppModule</title>
<polygon fill="#8dd3c7" stroke="black" points="408.66,-187 405.66,-191 384.66,-191 381.66,-187 325.34,-187 325.34,-151 408.66,-151 408.66,-187"/>
<text text-anchor="middle" x="367" y="-164.8" font-family="Times,serif" font-size="14.00">AppModule</text>
</g>
<!-- AppComponent&#45;&gt;AppModule -->
<g id="edge1" class="edge">
<title>AppComponent&#45;&gt;AppModule</title>
<path fill="none" stroke="black" d="M636,-122.28C636,-143.32 636,-175 636,-175 636,-175 418.74,-175 418.74,-175"/>
<polygon fill="black" stroke="black" points="418.74,-171.5 408.74,-175 418.74,-178.5 418.74,-171.5"/>
</g>
<!-- HeaderComponent -->
<g id="node2" class="node">
<title>HeaderComponent</title>
<polygon fill="#ffffb3" stroke="black" points="564.74,-122 443.26,-122 443.26,-86 564.74,-86 564.74,-122"/>
<text text-anchor="middle" x="504" y="-99.8" font-family="Times,serif" font-size="14.00">HeaderComponent</text>
</g>
<!-- HeaderComponent&#45;&gt;AppModule -->
<g id="edge2" class="edge">
<title>HeaderComponent&#45;&gt;AppModule</title>
<path fill="none" stroke="black" d="M504,-122.02C504,-139.37 504,-163 504,-163 504,-163 418.85,-163 418.85,-163"/>
<polygon fill="black" stroke="black" points="418.85,-159.5 408.85,-163 418.85,-166.5 418.85,-159.5"/>
</g>
<!-- HomeComponent -->
<g id="node3" class="node">
<title>HomeComponent</title>
<polygon fill="#ffffb3" stroke="black" points="424.55,-122 309.45,-122 309.45,-86 424.55,-86 424.55,-122"/>
<text text-anchor="middle" x="367" y="-99.8" font-family="Times,serif" font-size="14.00">HomeComponent</text>
</g>
<!-- HomeComponent&#45;&gt;AppModule -->
<g id="edge3" class="edge">
<title>HomeComponent&#45;&gt;AppModule</title>
<path fill="none" stroke="black" d="M367,-122.11C367,-122.11 367,-140.99 367,-140.99"/>
<polygon fill="black" stroke="black" points="363.5,-140.99 367,-150.99 370.5,-140.99 363.5,-140.99"/>
</g>
<!-- AppComponent  -->
<g id="node7" class="node">
<title>AppComponent </title>
<polygon fill="#80b1d3" stroke="black" points="421.44,-252 312.56,-252 312.56,-216 421.44,-216 421.44,-252"/>
<text text-anchor="middle" x="367" y="-229.8" font-family="Times,serif" font-size="14.00">AppComponent </text>
</g>
<!-- AppModule&#45;&gt;AppComponent  -->
<g id="edge6" class="edge">
<title>AppModule&#45;&gt;AppComponent </title>
<path fill="none" stroke="black" stroke-dasharray="1,5" d="M367,-187.11C367,-187.11 367,-205.99 367,-205.99"/>
<polygon fill="black" stroke="black" points="363.5,-205.99 367,-215.99 370.5,-205.99 363.5,-205.99"/>
</g>
<!-- MaterialModule -->
<g id="node5" class="node">
<title>MaterialModule</title>
<polygon fill="#8dd3c7" stroke="black" points="285.47,-122 282.47,-126 261.47,-126 258.47,-122 178.53,-122 178.53,-86 285.47,-86 285.47,-122"/>
<text text-anchor="middle" x="232" y="-99.8" font-family="Times,serif" font-size="14.00">MaterialModule</text>
</g>
<!-- MaterialModule&#45;&gt;AppModule -->
<g id="edge4" class="edge">
<title>MaterialModule&#45;&gt;AppModule</title>
<path fill="none" stroke="black" d="M232,-122.02C232,-139.37 232,-163 232,-163 232,-163 315.03,-163 315.03,-163"/>
<polygon fill="black" stroke="black" points="315.03,-166.5 325.03,-163 315.03,-159.5 315.03,-166.5"/>
</g>
<!-- SharedSearchModule -->
<g id="node6" class="node">
<title>SharedSearchModule</title>
<polygon fill="#8dd3c7" stroke="black" points="160.01,-122 157.01,-126 136.01,-126 133.01,-122 23.99,-122 23.99,-86 160.01,-86 160.01,-122"/>
<text text-anchor="middle" x="92" y="-99.8" font-family="Times,serif" font-size="14.00">SharedSearchModule</text>
</g>
<!-- SharedSearchModule&#45;&gt;AppModule -->
<g id="edge5" class="edge">
<title>SharedSearchModule&#45;&gt;AppModule</title>
<path fill="none" stroke="black" d="M92,-122.28C92,-143.32 92,-175 92,-175 92,-175 315.23,-175 315.23,-175"/>
<polygon fill="black" stroke="black" points="315.23,-178.5 325.23,-175 315.23,-171.5 315.23,-178.5"/>
</g>
</g>
</svg>
