<?xml version="1.0" encoding="UTF-8" standalone="no"?>
<!DOCTYPE svg PUBLIC "-//W3C//DTD SVG 1.1//EN"
 "http://www.w3.org/Graphics/SVG/1.1/DTD/svg11.dtd">
<!-- Generated by graphviz version 2.44.0 (20200408.0750)
 -->
<!-- Title: dependencies Pages: 1 -->
<svg width="1880pt" height="352pt"
 viewBox="0.00 0.00 1880.00 352.00" xmlns="http://www.w3.org/2000/svg" xmlns:xlink="http://www.w3.org/1999/xlink">
<g id="graph0" class="graph" transform="scale(1 1) rotate(0) translate(4 348)">
<title>dependencies</title>
<polygon fill="white" stroke="transparent" points="-4,4 -4,-348 1876,-348 1876,4 -4,4"/>
<text text-anchor="start" x="915.01" y="-42.4" font-family="sans-serif" font-weight="bold" font-size="14.00">Legend</text>
<polygon fill="#ffffb3" stroke="transparent" points="702,-10 702,-30 722,-30 722,-10 702,-10"/>
<text text-anchor="start" x="725.63" y="-15.4" font-family="sans-serif" font-size="14.00"> &#160;Declarations</text>
<polygon fill="#8dd3c7" stroke="transparent" points="815,-10 815,-30 835,-30 835,-10 815,-10"/>
<text text-anchor="start" x="838.73" y="-15.4" font-family="sans-serif" font-size="14.00"> &#160;Module</text>
<polygon fill="#80b1d3" stroke="transparent" points="901,-10 901,-30 921,-30 921,-10 901,-10"/>
<text text-anchor="start" x="924.78" y="-15.4" font-family="sans-serif" font-size="14.00"> &#160;Bootstrap</text>
<polygon fill="#fdb462" stroke="transparent" points="998,-10 998,-30 1018,-30 1018,-10 998,-10"/>
<text text-anchor="start" x="1021.67" y="-15.4" font-family="sans-serif" font-size="14.00"> &#160;Providers</text>
<polygon fill="#fb8072" stroke="transparent" points="1094,-10 1094,-30 1114,-30 1114,-10 1094,-10"/>
<text text-anchor="start" x="1117.73" y="-15.4" font-family="sans-serif" font-size="14.00"> &#160;Exports</text>
<g id="clust1" class="cluster">
<title>cluster_ApiModule</title>
<polygon fill="none" stroke="black" stroke-dasharray="1,5" points="8,-70 8,-198 262,-198 262,-70 8,-70"/>
</g>
<g id="clust6" class="cluster">
<title>cluster_ApiModule_providers</title>
<polygon fill="none" stroke="black" points="16,-78 16,-130 254,-130 254,-78 16,-78"/>
</g>
<g id="clust7" class="cluster">
<title>cluster_AppModule</title>
<polygon fill="none" stroke="black" stroke-dasharray="1,5" points="270,-70 270,-336 854,-336 854,-70 270,-70"/>
</g>
<g id="clust8" class="cluster">
<title>cluster_AppModule_declarations</title>
<polygon fill="none" stroke="black" points="450,-146 450,-198 846,-198 846,-146 450,-146"/>
</g>
<g id="clust12" class="cluster">
<title>cluster_AppModule_imports</title>
<polygon fill="none" stroke="black" points="290,-78 290,-198 442,-198 442,-78 290,-78"/>
</g>
<g id="clust14" class="cluster">
<title>cluster_AppModule_bootstrap</title>
<polygon fill="none" stroke="black" points="454,-276 454,-328 578,-328 578,-276 454,-276"/>
</g>
<g id="clust22" class="cluster">
<title>cluster_SharedSearchModule</title>
<polygon fill="none" stroke="black" stroke-dasharray="1,5" points="862,-70 862,-138 1864,-138 1864,-70 862,-70"/>
</g>
<g id="clust23" class="cluster">
<title>cluster_SharedSearchModule_declarations</title>
<polygon fill="none" stroke="black" points="1196,-78 1196,-130 1856,-130 1856,-78 1196,-78"/>
</g>
<g id="clust29" class="cluster">
<title>cluster_SharedSearchModule_exports</title>
<polygon fill="none" stroke="black" points="1050,-78 1050,-130 1188,-130 1188,-78 1050,-78"/>
</g>
<g id="clust31" class="cluster">
<title>cluster_SharedSearchModule_providers</title>
<polygon fill="none" stroke="black" points="870,-78 870,-130 1042,-130 1042,-78 870,-78"/>
</g>
<!-- FlightDestinationsService -->
<g id="node1" class="node">
<title>FlightDestinationsService</title>
<ellipse fill="#fdb462" stroke="black" cx="135" cy="-104" rx="111.19" ry="18"/>
<text text-anchor="middle" x="135" y="-99.8" font-family="Times,serif" font-size="14.00">FlightDestinationsService</text>
</g>
<!-- ApiModule -->
<g id="node2" class="node">
<title>ApiModule</title>
<polygon fill="#8dd3c7" stroke="black" points="175.05,-190 172.05,-194 151.05,-194 148.05,-190 94.95,-190 94.95,-154 175.05,-154 175.05,-190"/>
<text text-anchor="middle" x="135" y="-167.8" font-family="Times,serif" font-size="14.00">ApiModule</text>
</g>
<!-- FlightDestinationsService&#45;&gt;ApiModule -->
<g id="edge1" class="edge">
<title>FlightDestinationsService&#45;&gt;ApiModule</title>
<path fill="none" stroke="black" d="M135,-122.22C135,-122.22 135,-143.73 135,-143.73"/>
<polygon fill="black" stroke="black" points="131.5,-143.73 135,-153.73 138.5,-143.73 131.5,-143.73"/>
</g>
<!-- SharedSearchModule -->
<g id="node8" class="node">
<title>SharedSearchModule</title>
<polygon fill="#8dd3c7" stroke="black" points="434.01,-190 431.01,-194 410.01,-194 407.01,-190 297.99,-190 297.99,-154 434.01,-154 434.01,-190"/>
<text text-anchor="middle" x="366" y="-167.8" font-family="Times,serif" font-size="14.00">SharedSearchModule</text>
</g>
<!-- FlightDestinationsService&#45;&gt;SharedSearchModule -->
<g id="edge14" class="edge">
<title>FlightDestinationsService&#45;&gt;SharedSearchModule</title>
<path fill="none" stroke="black" d="M210.81,-117.43C210.81,-137.25 210.81,-172 210.81,-172 210.81,-172 287.93,-172 287.93,-172"/>
<polygon fill="black" stroke="black" points="287.93,-175.5 297.93,-172 287.93,-168.5 287.93,-175.5"/>
</g>
<!-- AppComponent -->
<g id="node3" class="node">
<title>AppComponent</title>
<polygon fill="#ffffb3" stroke="black" points="837.94,-190 732.06,-190 732.06,-154 837.94,-154 837.94,-190"/>
<text text-anchor="middle" x="785" y="-167.8" font-family="Times,serif" font-size="14.00">AppComponent</text>
</g>
<!-- AppModule -->
<g id="node6" class="node">
<title>AppModule</title>
<polygon fill="#8dd3c7" stroke="black" points="557.66,-255 554.66,-259 533.66,-259 530.66,-255 474.34,-255 474.34,-219 557.66,-219 557.66,-255"/>
<text text-anchor="middle" x="516" y="-232.8" font-family="Times,serif" font-size="14.00">AppModule</text>
</g>
<!-- AppComponent&#45;&gt;AppModule -->
<g id="edge2" class="edge">
<title>AppComponent&#45;&gt;AppModule</title>
<path fill="none" stroke="black" d="M785,-190.28C785,-211.32 785,-243 785,-243 785,-243 567.74,-243 567.74,-243"/>
<polygon fill="black" stroke="black" points="567.74,-239.5 557.74,-243 567.74,-246.5 567.74,-239.5"/>
</g>
<!-- HeaderComponent -->
<g id="node4" class="node">
<title>HeaderComponent</title>
<polygon fill="#ffffb3" stroke="black" points="713.74,-190 592.26,-190 592.26,-154 713.74,-154 713.74,-190"/>
<text text-anchor="middle" x="653" y="-167.8" font-family="Times,serif" font-size="14.00">HeaderComponent</text>
</g>
<!-- HeaderComponent&#45;&gt;AppModule -->
<g id="edge3" class="edge">
<title>HeaderComponent&#45;&gt;AppModule</title>
<path fill="none" stroke="black" d="M653,-190.02C653,-207.37 653,-231 653,-231 653,-231 567.85,-231 567.85,-231"/>
<polygon fill="black" stroke="black" points="567.85,-227.5 557.85,-231 567.85,-234.5 567.85,-227.5"/>
</g>
<!-- HomeComponent -->
<g id="node5" class="node">
<title>HomeComponent</title>
<polygon fill="#ffffb3" stroke="black" points="573.55,-190 458.45,-190 458.45,-154 573.55,-154 573.55,-190"/>
<text text-anchor="middle" x="516" y="-167.8" font-family="Times,serif" font-size="14.00">HomeComponent</text>
</g>
<!-- HomeComponent&#45;&gt;AppModule -->
<g id="edge4" class="edge">
<title>HomeComponent&#45;&gt;AppModule</title>
<path fill="none" stroke="black" d="M516,-190.11C516,-190.11 516,-208.99 516,-208.99"/>
<polygon fill="black" stroke="black" points="512.5,-208.99 516,-218.99 519.5,-208.99 512.5,-208.99"/>
</g>
<!-- AppComponent  -->
<g id="node9" class="node">
<title>AppComponent </title>
<polygon fill="#80b1d3" stroke="black" points="570.44,-320 461.56,-320 461.56,-284 570.44,-284 570.44,-320"/>
<text text-anchor="middle" x="516" y="-297.8" font-family="Times,serif" font-size="14.00">AppComponent </text>
</g>
<!-- AppModule&#45;&gt;AppComponent  -->
<g id="edge7" class="edge">
<title>AppModule&#45;&gt;AppComponent </title>
<path fill="none" stroke="black" stroke-dasharray="1,5" d="M516,-255.11C516,-255.11 516,-273.99 516,-273.99"/>
<polygon fill="black" stroke="black" points="512.5,-273.99 516,-283.99 519.5,-273.99 512.5,-273.99"/>
</g>
<!-- MaterialModule -->
<g id="node7" class="node">
<title>MaterialModule</title>
<polygon fill="#8dd3c7" stroke="black" points="411.47,-122 408.47,-126 387.47,-126 384.47,-122 304.53,-122 304.53,-86 411.47,-86 411.47,-122"/>
<text text-anchor="middle" x="358" y="-99.8" font-family="Times,serif" font-size="14.00">MaterialModule</text>
</g>
<!-- MaterialModule&#45;&gt;AppModule -->
<g id="edge5" class="edge">
<title>MaterialModule&#45;&gt;AppModule</title>
<path fill="none" stroke="black" d="M411.62,-110C430.1,-110 446.24,-110 446.24,-110 446.24,-110 446.24,-231 446.24,-231 446.24,-231 464.21,-231 464.21,-231"/>
<polygon fill="black" stroke="black" points="464.21,-234.5 474.21,-231 464.21,-227.5 464.21,-234.5"/>
</g>
<!-- MaterialModule&#45;&gt;SharedSearchModule -->
<g id="edge12" class="edge">
<title>MaterialModule&#45;&gt;SharedSearchModule</title>
<path fill="none" stroke="black" d="M358,-122.22C358,-122.22 358,-143.73 358,-143.73"/>
<polygon fill="black" stroke="black" points="354.5,-143.73 358,-153.73 361.5,-143.73 354.5,-143.73"/>
</g>
<!-- SharedSearchModule&#45;&gt;AppModule -->
<g id="edge6" class="edge">
<title>SharedSearchModule&#45;&gt;AppModule</title>
<path fill="none" stroke="black" d="M366,-190.28C366,-211.32 366,-243 366,-243 366,-243 464.22,-243 464.22,-243"/>
<polygon fill="black" stroke="black" points="464.22,-246.5 474.22,-243 464.22,-239.5 464.22,-246.5"/>
</g>
<!-- SearchComponent  -->
<g id="node14" class="node">
<title>SearchComponent </title>
<polygon fill="#fb8072" stroke="black" points="1180.42,-122 1057.58,-122 1057.58,-86 1180.42,-86 1180.42,-122"/>
<text text-anchor="middle" x="1119" y="-99.8" font-family="Times,serif" font-size="14.00">SearchComponent </text>
</g>
<!-- SharedSearchModule&#45;&gt;SearchComponent  -->
<g id="edge13" class="edge">
<title>SharedSearchModule&#45;&gt;SearchComponent </title>
<path fill="none" stroke="black" stroke-dasharray="5,2" d="M414.74,-153.85C414.74,-141.73 414.74,-128 414.74,-128 414.74,-128 1119,-128 1119,-128 1119,-128 1119,-127.42 1119,-127.42"/>
<polygon fill="black" stroke="black" points="1122.5,-132.19 1119,-122.19 1115.5,-132.19 1122.5,-132.19"/>
</g>
<!-- FlightListComponent -->
<g id="node10" class="node">
<title>FlightListComponent</title>
<polygon fill="#ffffb3" stroke="black" points="1848.07,-122 1711.93,-122 1711.93,-86 1848.07,-86 1848.07,-122"/>
<text text-anchor="middle" x="1780" y="-99.8" font-family="Times,serif" font-size="14.00">FlightListComponent</text>
</g>
<!-- FlightListComponent&#45;&gt;SharedSearchModule -->
<g id="edge8" class="edge">
<title>FlightListComponent&#45;&gt;SharedSearchModule</title>
<path fill="none" stroke="black" d="M1780,-122.04C1780,-134.56 1780,-149 1780,-149 1780,-149 431,-149 431,-149 431,-149 431,-149.49 431,-149.49"/>
<polygon fill="black" stroke="black" points="427.5,-143.88 431,-153.88 434.5,-143.88 427.5,-143.88"/>
</g>
<!-- SearchComponent -->
<g id="node11" class="node">
<title>SearchComponent</title>
<polygon fill="#ffffb3" stroke="black" points="1693.92,-122 1574.08,-122 1574.08,-86 1693.92,-86 1693.92,-122"/>
<text text-anchor="middle" x="1634" y="-99.8" font-family="Times,serif" font-size="14.00">SearchComponent</text>
</g>
<!-- SearchComponent&#45;&gt;SharedSearchModule -->
<g id="edge9" class="edge">
<title>SearchComponent&#45;&gt;SharedSearchModule</title>
<path fill="none" stroke="black" d="M1634,-122.13C1634,-132.71 1634,-144 1634,-144 1634,-144 427.75,-144 427.75,-144 427.75,-144 427.75,-144.98 427.75,-144.98"/>
<polygon fill="black" stroke="black" points="424.25,-143.79 427.75,-153.79 431.25,-143.79 424.25,-143.79"/>
</g>
<!-- SearchResultsComponent -->
<g id="node12" class="node">
<title>SearchResultsComponent</title>
<polygon fill="#ffffb3" stroke="black" points="1556.14,-122 1395.86,-122 1395.86,-86 1556.14,-86 1556.14,-122"/>
<text text-anchor="middle" x="1476" y="-99.8" font-family="Times,serif" font-size="14.00">SearchResultsComponent</text>
</g>
<!-- SearchResultsComponent&#45;&gt;SharedSearchModule -->
<g id="edge10" class="edge">
<title>SearchResultsComponent&#45;&gt;SharedSearchModule</title>
<path fill="none" stroke="black" d="M1476,-122.19C1476,-130.28 1476,-138 1476,-138 1476,-138 424.5,-138 424.5,-138 424.5,-138 424.5,-143.81 424.5,-143.81"/>
<polygon fill="black" stroke="black" points="421,-143.81 424.5,-153.81 428,-143.81 421,-143.81"/>
</g>
<!-- SearchSummaryComponent -->
<g id="node13" class="node">
<title>SearchSummaryComponent</title>
<polygon fill="#ffffb3" stroke="black" points="1377.86,-122 1204.14,-122 1204.14,-86 1377.86,-86 1377.86,-122"/>
<text text-anchor="middle" x="1291" y="-99.8" font-family="Times,serif" font-size="14.00">SearchSummaryComponent</text>
</g>
<!-- SearchSummaryComponent&#45;&gt;SharedSearchModule -->
<g id="edge11" class="edge">
<title>SearchSummaryComponent&#45;&gt;SharedSearchModule</title>
<path fill="none" stroke="black" d="M1291,-122.2C1291,-128.03 1291,-133 1291,-133 1291,-133 421.24,-133 421.24,-133 421.24,-133 421.24,-143.87 421.24,-143.87"/>
<polygon fill="black" stroke="black" points="417.74,-143.87 421.24,-153.87 424.74,-143.87 417.74,-143.87"/>
</g>
<!-- TokenInterceptor -->
<g id="node15" class="node">
<title>TokenInterceptor</title>
<ellipse fill="#fdb462" stroke="black" cx="956" cy="-104" rx="78.13" ry="18"/>
<text text-anchor="middle" x="956" y="-99.8" font-family="Times,serif" font-size="14.00">TokenInterceptor</text>
</g>
<!-- TokenInterceptor&#45;&gt;SharedSearchModule -->
<g id="edge15" class="edge">
<title>TokenInterceptor&#45;&gt;SharedSearchModule</title>
<path fill="none" stroke="black" d="M882.32,-98C734.97,-98 417.99,-98 417.99,-98 417.99,-98 417.99,-143.71 417.99,-143.71"/>
<polygon fill="black" stroke="black" points="414.49,-143.71 417.99,-153.71 421.49,-143.71 414.49,-143.71"/>
</g>
</g>
</svg>
