<?xml version="1.0" encoding="UTF-8" standalone="no"?>
<!DOCTYPE svg PUBLIC "-//W3C//DTD SVG 1.1//EN"
 "http://www.w3.org/Graphics/SVG/1.1/DTD/svg11.dtd">
<!-- Generated by graphviz version 2.40.1 (20161225.0304)
 -->
<!-- Title: dependencies Pages: 1 -->
<svg width="2150pt" height="352pt"
 viewBox="0.00 0.00 2150.00 352.00" xmlns="http://www.w3.org/2000/svg" xmlns:xlink="http://www.w3.org/1999/xlink">
<g id="graph0" class="graph" transform="scale(1 1) rotate(0) translate(4 348)">
<title>dependencies</title>
<polygon fill="#ffffff" stroke="transparent" points="-4,4 -4,-348 2146,-348 2146,4 -4,4"/>
<text text-anchor="start" x="1050.0091" y="-42.4" font-family="sans-serif" font-weight="bold" font-size="14.00" fill="#000000">Legend</text>
<polygon fill="#ffffb3" stroke="transparent" points="837,-10 837,-30 857,-30 857,-10 837,-10"/>
<text text-anchor="start" x="860.629" y="-15.4" font-family="sans-serif" font-size="14.00" fill="#000000"> &#160;Declarations</text>
<polygon fill="#8dd3c7" stroke="transparent" points="950,-10 950,-30 970,-30 970,-10 950,-10"/>
<text text-anchor="start" x="973.7251" y="-15.4" font-family="sans-serif" font-size="14.00" fill="#000000"> &#160;Module</text>
<polygon fill="#80b1d3" stroke="transparent" points="1036,-10 1036,-30 1056,-30 1056,-10 1036,-10"/>
<text text-anchor="start" x="1059.7812" y="-15.4" font-family="sans-serif" font-size="14.00" fill="#000000"> &#160;Bootstrap</text>
<polygon fill="#fdb462" stroke="transparent" points="1133,-10 1133,-30 1153,-30 1153,-10 1133,-10"/>
<text text-anchor="start" x="1156.6732" y="-15.4" font-family="sans-serif" font-size="14.00" fill="#000000"> &#160;Providers</text>
<polygon fill="#fb8072" stroke="transparent" points="1229,-10 1229,-30 1249,-30 1249,-10 1229,-10"/>
<text text-anchor="start" x="1252.7258" y="-15.4" font-family="sans-serif" font-size="14.00" fill="#000000"> &#160;Exports</text>
<g id="clust1" class="cluster">
<title>cluster_ApiModule</title>
<polygon fill="none" stroke="#000000" stroke-dasharray="1,5" points="8,-70 8,-198 262,-198 262,-70 8,-70"/>
</g>
<g id="clust6" class="cluster">
<title>cluster_ApiModule_providers</title>
<polygon fill="none" stroke="#000000" points="16,-78 16,-130 254,-130 254,-78 16,-78"/>
</g>
<g id="clust7" class="cluster">
<title>cluster_AppModule</title>
<polygon fill="none" stroke="#000000" stroke-dasharray="1,5" points="270,-70 270,-336 854,-336 854,-70 270,-70"/>
</g>
<g id="clust8" class="cluster">
<title>cluster_AppModule_declarations</title>
<polygon fill="none" stroke="#000000" points="450,-146 450,-198 846,-198 846,-146 450,-146"/>
</g>
<g id="clust12" class="cluster">
<title>cluster_AppModule_imports</title>
<polygon fill="none" stroke="#000000" points="290,-78 290,-198 442,-198 442,-78 290,-78"/>
</g>
<g id="clust14" class="cluster">
<title>cluster_AppModule_bootstrap</title>
<polygon fill="none" stroke="#000000" points="454,-276 454,-328 578,-328 578,-276 454,-276"/>
</g>
<g id="clust22" class="cluster">
<title>cluster_SharedSearchModule</title>
<polygon fill="none" stroke="#000000" stroke-dasharray="1,5" points="862,-70 862,-138 2134,-138 2134,-70 862,-70"/>
</g>
<g id="clust23" class="cluster">
<title>cluster_SharedSearchModule_declarations</title>
<polygon fill="none" stroke="#000000" points="1466,-78 1466,-130 2126,-130 2126,-78 1466,-78"/>
</g>
<g id="clust29" class="cluster">
<title>cluster_SharedSearchModule_exports</title>
<polygon fill="none" stroke="#000000" points="1320,-78 1320,-130 1458,-130 1458,-78 1320,-78"/>
</g>
<g id="clust31" class="cluster">
<title>cluster_SharedSearchModule_providers</title>
<polygon fill="none" stroke="#000000" points="870,-78 870,-130 1312,-130 1312,-78 870,-78"/>
</g>
<!-- FlightDestinationsService -->
<g id="node1" class="node">
<title>FlightDestinationsService</title>
<ellipse fill="#fdb462" stroke="#000000" cx="135" cy="-104" rx="111.1885" ry="18"/>
<text text-anchor="middle" x="135" y="-99.8" font-family="Times,serif" font-size="14.00" fill="#000000">FlightDestinationsService</text>
</g>
<!-- ApiModule -->
<g id="node2" class="node">
<title>ApiModule</title>
<polygon fill="#8dd3c7" stroke="#000000" points="175.0483,-190 172.0483,-194 151.0483,-194 148.0483,-190 94.9517,-190 94.9517,-154 175.0483,-154 175.0483,-190"/>
<text text-anchor="middle" x="135" y="-167.8" font-family="Times,serif" font-size="14.00" fill="#000000">ApiModule</text>
</g>
<!-- FlightDestinationsService&#45;&gt;ApiModule -->
<g id="edge1" class="edge">
<title>FlightDestinationsService&#45;&gt;ApiModule</title>
<path fill="none" stroke="#000000" d="M135,-122.2228C135,-122.2228 135,-143.7269 135,-143.7269"/>
<polygon fill="#000000" stroke="#000000" points="131.5001,-143.7269 135,-153.7269 138.5001,-143.727 131.5001,-143.7269"/>
</g>
<!-- SharedSearchModule -->
<g id="node8" class="node">
<title>SharedSearchModule</title>
<polygon fill="#8dd3c7" stroke="#000000" points="434.0101,-190 431.0101,-194 410.0101,-194 407.0101,-190 297.9899,-190 297.9899,-154 434.0101,-154 434.0101,-190"/>
<text text-anchor="middle" x="366" y="-167.8" font-family="Times,serif" font-size="14.00" fill="#000000">SharedSearchModule</text>
</g>
<!-- FlightDestinationsService&#45;&gt;SharedSearchModule -->
<g id="edge15" class="edge">
<title>FlightDestinationsService&#45;&gt;SharedSearchModule</title>
<path fill="none" stroke="#000000" d="M210.8088,-117.4346C210.8088,-137.2519 210.8088,-172 210.8088,-172 210.8088,-172 287.9309,-172 287.9309,-172"/>
<polygon fill="#000000" stroke="#000000" points="287.9309,-175.5001 297.9309,-172 287.9309,-168.5001 287.9309,-175.5001"/>
</g>
<!-- AppComponent -->
<g id="node3" class="node">
<title>AppComponent</title>
<polygon fill="#ffffb3" stroke="#000000" points="837.9399,-190 732.0601,-190 732.0601,-154 837.9399,-154 837.9399,-190"/>
<text text-anchor="middle" x="785" y="-167.8" font-family="Times,serif" font-size="14.00" fill="#000000">AppComponent</text>
</g>
<!-- AppModule -->
<g id="node6" class="node">
<title>AppModule</title>
<polygon fill="#8dd3c7" stroke="#000000" points="557.6571,-255 554.6571,-259 533.6571,-259 530.6571,-255 474.3429,-255 474.3429,-219 557.6571,-219 557.6571,-255"/>
<text text-anchor="middle" x="516" y="-232.8" font-family="Times,serif" font-size="14.00" fill="#000000">AppModule</text>
</g>
<!-- AppComponent&#45;&gt;AppModule -->
<g id="edge2" class="edge">
<title>AppComponent&#45;&gt;AppModule</title>
<path fill="none" stroke="#000000" d="M785,-190.2843C785,-211.3211 785,-243 785,-243 785,-243 567.7361,-243 567.7361,-243"/>
<polygon fill="#000000" stroke="#000000" points="567.7361,-239.5001 557.7361,-243 567.7361,-246.5001 567.7361,-239.5001"/>
</g>
<!-- HeaderComponent -->
<g id="node4" class="node">
<title>HeaderComponent</title>
<polygon fill="#ffffb3" stroke="#000000" points="713.7437,-190 592.2563,-190 592.2563,-154 713.7437,-154 713.7437,-190"/>
<text text-anchor="middle" x="653" y="-167.8" font-family="Times,serif" font-size="14.00" fill="#000000">HeaderComponent</text>
</g>
<!-- HeaderComponent&#45;&gt;AppModule -->
<g id="edge3" class="edge">
<title>HeaderComponent&#45;&gt;AppModule</title>
<path fill="none" stroke="#000000" d="M653,-190.0225C653,-207.3734 653,-231 653,-231 653,-231 567.8489,-231 567.8489,-231"/>
<polygon fill="#000000" stroke="#000000" points="567.849,-227.5001 557.8489,-231 567.8489,-234.5001 567.849,-227.5001"/>
</g>
<!-- HomeComponent -->
<g id="node5" class="node">
<title>HomeComponent</title>
<polygon fill="#ffffb3" stroke="#000000" points="573.5451,-190 458.4549,-190 458.4549,-154 573.5451,-154 573.5451,-190"/>
<text text-anchor="middle" x="516" y="-167.8" font-family="Times,serif" font-size="14.00" fill="#000000">HomeComponent</text>
</g>
<!-- HomeComponent&#45;&gt;AppModule -->
<g id="edge4" class="edge">
<title>HomeComponent&#45;&gt;AppModule</title>
<path fill="none" stroke="#000000" d="M516,-190.1061C516,-190.1061 516,-208.991 516,-208.991"/>
<polygon fill="#000000" stroke="#000000" points="512.5001,-208.9909 516,-218.991 519.5001,-208.991 512.5001,-208.9909"/>
</g>
<!-- AppComponent  -->
<g id="node9" class="node">
<title>AppComponent </title>
<polygon fill="#80b1d3" stroke="#000000" points="570.439,-320 461.561,-320 461.561,-284 570.439,-284 570.439,-320"/>
<text text-anchor="middle" x="516" y="-297.8" font-family="Times,serif" font-size="14.00" fill="#000000">AppComponent </text>
</g>
<!-- AppModule&#45;&gt;AppComponent  -->
<g id="edge7" class="edge">
<title>AppModule&#45;&gt;AppComponent </title>
<path fill="none" stroke="#000000" stroke-dasharray="1,5" d="M516,-255.1061C516,-255.1061 516,-273.991 516,-273.991"/>
<polygon fill="#000000" stroke="#000000" points="512.5001,-273.9909 516,-283.991 519.5001,-273.991 512.5001,-273.9909"/>
</g>
<!-- MaterialModule -->
<g id="node7" class="node">
<title>MaterialModule</title>
<polygon fill="#8dd3c7" stroke="#000000" points="411.4706,-122 408.4706,-126 387.4706,-126 384.4706,-122 304.5294,-122 304.5294,-86 411.4706,-86 411.4706,-122"/>
<text text-anchor="middle" x="358" y="-99.8" font-family="Times,serif" font-size="14.00" fill="#000000">MaterialModule</text>
</g>
<!-- MaterialModule&#45;&gt;AppModule -->
<g id="edge5" class="edge">
<title>MaterialModule&#45;&gt;AppModule</title>
<path fill="none" stroke="#000000" d="M411.6192,-110C430.0969,-110 446.2413,-110 446.2413,-110 446.2413,-110 446.2413,-231 446.2413,-231 446.2413,-231 464.2129,-231 464.2129,-231"/>
<polygon fill="#000000" stroke="#000000" points="464.2129,-234.5001 474.2129,-231 464.2128,-227.5001 464.2129,-234.5001"/>
</g>
<!-- MaterialModule&#45;&gt;SharedSearchModule -->
<g id="edge12" class="edge">
<title>MaterialModule&#45;&gt;SharedSearchModule</title>
<path fill="none" stroke="#000000" d="M358,-122.2228C358,-122.2228 358,-143.7269 358,-143.7269"/>
<polygon fill="#000000" stroke="#000000" points="354.5001,-143.7269 358,-153.7269 361.5001,-143.727 354.5001,-143.7269"/>
</g>
<!-- SharedSearchModule&#45;&gt;AppModule -->
<g id="edge6" class="edge">
<title>SharedSearchModule&#45;&gt;AppModule</title>
<path fill="none" stroke="#000000" d="M366,-190.2843C366,-211.3211 366,-243 366,-243 366,-243 464.2166,-243 464.2166,-243"/>
<polygon fill="#000000" stroke="#000000" points="464.2167,-246.5001 474.2166,-243 464.2166,-239.5001 464.2167,-246.5001"/>
</g>
<!-- SearchComponent  -->
<g id="node14" class="node">
<title>SearchComponent </title>
<polygon fill="#fb8072" stroke="#000000" points="1450.4194,-122 1327.5806,-122 1327.5806,-86 1450.4194,-86 1450.4194,-122"/>
<text text-anchor="middle" x="1389" y="-99.8" font-family="Times,serif" font-size="14.00" fill="#000000">SearchComponent </text>
</g>
<!-- SharedSearchModule&#45;&gt;SearchComponent  -->
<g id="edge13" class="edge">
<title>SharedSearchModule&#45;&gt;SearchComponent </title>
<path fill="none" stroke="#000000" stroke-dasharray="5,2" d="M414.3315,-153.8726C414.3315,-143.2891 414.3315,-132 414.3315,-132 414.3315,-132 1389,-132 1389,-132 1389,-132 1389,-131.0207 1389,-131.0207"/>
<polygon fill="#000000" stroke="#000000" points="1392.5001,-132.2069 1389,-122.207 1385.5001,-132.207 1392.5001,-132.2069"/>
</g>
<!-- FlightListComponent -->
<g id="node10" class="node">
<title>FlightListComponent</title>
<polygon fill="#ffffb3" stroke="#000000" points="1748.0659,-122 1611.9341,-122 1611.9341,-86 1748.0659,-86 1748.0659,-122"/>
<text text-anchor="middle" x="1680" y="-99.8" font-family="Times,serif" font-size="14.00" fill="#000000">FlightListComponent</text>
</g>
<!-- FlightListComponent&#45;&gt;SharedSearchModule -->
<g id="edge8" class="edge">
<title>FlightListComponent&#45;&gt;SharedSearchModule</title>
<path fill="none" stroke="#000000" d="M1680,-122.0664C1680,-131.4587 1680,-141 1680,-141 1680,-141 425.7161,-141 425.7161,-141 425.7161,-141 425.7161,-143.9672 425.7161,-143.9672"/>
<polygon fill="#000000" stroke="#000000" points="422.2162,-143.9671 425.7161,-153.9672 429.2162,-143.9672 422.2162,-143.9671"/>
</g>
<!-- SearchComponent -->
<g id="node11" class="node">
<title>SearchComponent</title>
<polygon fill="#ffffb3" stroke="#000000" points="1593.9201,-122 1474.0799,-122 1474.0799,-86 1593.9201,-86 1593.9201,-122"/>
<text text-anchor="middle" x="1534" y="-99.8" font-family="Times,serif" font-size="14.00" fill="#000000">SearchComponent</text>
</g>
<!-- SearchComponent&#45;&gt;SharedSearchModule -->
<g id="edge9" class="edge">
<title>SearchComponent&#45;&gt;SharedSearchModule</title>
<path fill="none" stroke="#000000" d="M1534,-122.2434C1534,-129.4297 1534,-136 1534,-136 1534,-136 422.87,-136 422.87,-136 422.87,-136 422.87,-143.5782 422.87,-143.5782"/>
<polygon fill="#000000" stroke="#000000" points="419.37,-143.5781 422.87,-153.5782 426.37,-143.5782 419.37,-143.5781"/>
</g>
<!-- SearchResultsComponent -->
<g id="node12" class="node">
<title>SearchResultsComponent</title>
<polygon fill="#ffffb3" stroke="#000000" points="2118.1414,-122 1957.8586,-122 1957.8586,-86 2118.1414,-86 2118.1414,-122"/>
<text text-anchor="middle" x="2038" y="-99.8" font-family="Times,serif" font-size="14.00" fill="#000000">SearchResultsComponent</text>
</g>
<!-- SearchResultsComponent&#45;&gt;SharedSearchModule -->
<g id="edge10" class="edge">
<title>SearchResultsComponent&#45;&gt;SharedSearchModule</title>
<path fill="none" stroke="#000000" d="M2038,-122.1804C2038,-135.0382 2038,-150 2038,-150 2038,-150 431.4084,-150 431.4084,-150 431.4084,-150 431.4084,-150.3832 431.4084,-150.3832"/>
<polygon fill="#000000" stroke="#000000" points="427.9087,-143.832 431.4084,-153.8321 434.9087,-143.8322 427.9087,-143.832"/>
</g>
<!-- SearchSummaryComponent -->
<g id="node13" class="node">
<title>SearchSummaryComponent</title>
<polygon fill="#ffffb3" stroke="#000000" points="1939.8585,-122 1766.1415,-122 1766.1415,-86 1939.8585,-86 1939.8585,-122"/>
<text text-anchor="middle" x="1853" y="-99.8" font-family="Times,serif" font-size="14.00" fill="#000000">SearchSummaryComponent</text>
</g>
<!-- SearchSummaryComponent&#45;&gt;SharedSearchModule -->
<g id="edge11" class="edge">
<title>SearchSummaryComponent&#45;&gt;SharedSearchModule</title>
<path fill="none" stroke="#000000" d="M1853,-122.1025C1853,-133.0859 1853,-145 1853,-145 1853,-145 428.5623,-145 428.5623,-145 428.5623,-145 428.5623,-145.8841 428.5623,-145.8841"/>
<polygon fill="#000000" stroke="#000000" points="425.0624,-143.8408 428.5623,-153.8408 432.0624,-143.8409 425.0624,-143.8408"/>
</g>
<!-- AuthenticationServiceService -->
<g id="node15" class="node">
<title>AuthenticationServiceService</title>
<ellipse fill="#fdb462" stroke="#000000" cx="1178" cy="-104" rx="126.1791" ry="18"/>
<text text-anchor="middle" x="1178" y="-99.8" font-family="Times,serif" font-size="14.00" fill="#000000">AuthenticationServiceService</text>
</g>
<!-- AuthenticationServiceService&#45;&gt;SharedSearchModule -->
<g id="edge14" class="edge">
<title>AuthenticationServiceService&#45;&gt;SharedSearchModule</title>
<path fill="none" stroke="#000000" d="M1178,-122.1223C1178,-124.9729 1178,-127 1178,-127 1178,-127 420.0238,-127 420.0238,-127 420.0238,-127 420.0238,-143.9561 420.0238,-143.9561"/>
<polygon fill="#000000" stroke="#000000" points="416.5239,-143.956 420.0238,-153.9561 423.5239,-143.9561 416.5239,-143.956"/>
</g>
<!-- TokenInterceptor -->
<g id="node16" class="node">
<title>TokenInterceptor</title>
<ellipse fill="#fdb462" stroke="#000000" cx="956" cy="-104" rx="78.1308" ry="18"/>
<text text-anchor="middle" x="956" y="-99.8" font-family="Times,serif" font-size="14.00" fill="#000000">TokenInterceptor</text>
</g>
<!-- TokenInterceptor&#45;&gt;SharedSearchModule -->
<g id="edge16" class="edge">
<title>TokenInterceptor&#45;&gt;SharedSearchModule</title>
<path fill="none" stroke="#000000" d="M882.2088,-98C734.6389,-98 417.1776,-98 417.1776,-98 417.1776,-98 417.1776,-143.7079 417.1776,-143.7079"/>
<polygon fill="#000000" stroke="#000000" points="413.6777,-143.7078 417.1776,-153.7079 420.6777,-143.7079 413.6777,-143.7078"/>
</g>
</g>
</svg>
